<svg width="25" height="25" viewBox="0 0 25 25" fill="none" xmlns="http://www.w3.org/2000/svg">
<g clip-path="url(#clip0_867_659)">
<path d="M7.29167 0H4.16667C3.0616 0 2.00179 0.438987 1.22039 1.22039C0.438987 2.00179 0 3.0616 0 4.16667L0 7.29167C0 8.39674 0.438987 9.45654 1.22039 10.2379C2.00179 11.0193 3.0616 11.4583 4.16667 11.4583H7.29167C8.39674 11.4583 9.45654 11.0193 10.2379 10.2379C11.0193 9.45654 11.4583 8.39674 11.4583 7.29167V4.16667C11.4583 3.0616 11.0193 2.00179 10.2379 1.22039C9.45654 0.438987 8.39674 0 7.29167 0V0ZM9.375 7.29167C9.375 7.8442 9.15551 8.3741 8.7648 8.7648C8.3741 9.15551 7.8442 9.375 7.29167 9.375H4.16667C3.61413 9.375 3.08423 9.15551 2.69353 8.7648C2.30283 8.3741 2.08333 7.8442 2.08333 7.29167V4.16667C2.08333 3.61413 2.30283 3.08423 2.69353 2.69353C3.08423 2.30283 3.61413 2.08333 4.16667 2.08333H7.29167C7.8442 2.08333 8.3741 2.30283 8.7648 2.69353C9.15551 3.08423 9.375 3.61413 9.375 4.16667V7.29167Z" fill="#F59E0B"/>
<path d="M7.29167 13.5417H4.16667C3.0616 13.5417 2.00179 13.9806 1.22039 14.762C0.438987 15.5434 0 16.6033 0 17.7083L0 20.8333C0 21.9384 0.438987 22.9982 1.22039 23.7796C2.00179 24.561 3.0616 25 4.16667 25H7.29167C8.39674 25 9.45654 24.561 10.2379 23.7796C11.0193 22.9982 11.4583 21.9384 11.4583 20.8333V17.7083C11.4583 16.6033 11.0193 15.5434 10.2379 14.762C9.45654 13.9806 8.39674 13.5417 7.29167 13.5417ZM9.375 20.8333C9.375 21.3859 9.15551 21.9158 8.7648 22.3065C8.3741 22.6972 7.8442 22.9167 7.29167 22.9167H4.16667C3.61413 22.9167 3.08423 22.6972 2.69353 22.3065C2.30283 21.9158 2.08333 21.3859 2.08333 20.8333V17.7083C2.08333 17.1558 2.30283 16.6259 2.69353 16.2352C3.08423 15.8445 3.61413 15.625 4.16667 15.625H7.29167C7.8442 15.625 8.3741 15.8445 8.7648 16.2352C9.15551 16.6259 9.375 17.1558 9.375 17.7083V20.8333Z" fill="#F59E0B"/>
<path d="M20.8334 13.5417H17.7084C16.6033 13.5417 15.5435 13.9806 14.7621 14.762C13.9807 15.5434 13.5417 16.6033 13.5417 17.7083V20.8333C13.5417 21.9384 13.9807 22.9982 14.7621 23.7796C15.5435 24.561 16.6033 25 17.7084 25H20.8334C21.9385 25 22.9983 24.561 23.7797 23.7796C24.5611 22.9982 25.0001 21.9384 25.0001 20.8333V17.7083C25.0001 16.6033 24.5611 15.5434 23.7797 14.762C22.9983 13.9806 21.9385 13.5417 20.8334 13.5417ZM22.9167 20.8333C22.9167 21.3859 22.6972 21.9158 22.3065 22.3065C21.9158 22.6972 21.3859 22.9167 20.8334 22.9167H17.7084C17.1559 22.9167 16.626 22.6972 16.2353 22.3065C15.8446 21.9158 15.6251 21.3859 15.6251 20.8333V17.7083C15.6251 17.1558 15.8446 16.6259 16.2353 16.2352C16.626 15.8445 17.1559 15.625 17.7084 15.625H20.8334C21.3859 15.625 21.9158 15.8445 22.3065 16.2352C22.6972 16.6259 22.9167 17.1558 22.9167 17.7083V20.8333Z" fill="#F59E0B"/>
<path d="M14.5834 7.29166H17.7084V10.4167C17.7084 10.6929 17.8182 10.9579 18.0135 11.1532C18.2089 11.3486 18.4738 11.4583 18.7501 11.4583C19.0263 11.4583 19.2913 11.3486 19.4867 11.1532C19.682 10.9579 19.7917 10.6929 19.7917 10.4167V7.29166H22.9167C23.193 7.29166 23.458 7.18191 23.6533 6.98656C23.8487 6.79121 23.9584 6.52626 23.9584 6.24999C23.9584 5.97372 23.8487 5.70877 23.6533 5.51342C23.458 5.31807 23.193 5.20832 22.9167 5.20832H19.7917V2.08332C19.7917 1.80706 19.682 1.5421 19.4867 1.34675C19.2913 1.1514 19.0263 1.04166 18.7501 1.04166C18.4738 1.04166 18.2089 1.1514 18.0135 1.34675C17.8182 1.5421 17.7084 1.80706 17.7084 2.08332V5.20832H14.5834C14.3071 5.20832 14.0422 5.31807 13.8468 5.51342C13.6515 5.70877 13.5417 5.97372 13.5417 6.24999C13.5417 6.52626 13.6515 6.79121 13.8468 6.98656C14.0422 7.18191 14.3071 7.29166 14.5834 7.29166Z" fill="#F59E0B"/>
</g>
<defs>
<clipPath id="clip0_867_659">
<rect width="25" height="25" fill="white"/>
</clipPath>
</defs>
</svg>
